<?xml version="1.0" standalone="no"?>
<!DOCTYPE svg PUBLIC "-//W3C//DTD SVG 20010904//EN"
 "http://www.w3.org/TR/2001/REC-SVG-20010904/DTD/svg10.dtd">
<svg version="1.0" xmlns="http://www.w3.org/2000/svg"
 width="1124.000000pt" height="1043.000000pt" viewBox="0 0 1124.000000 1043.000000"
 preserveAspectRatio="xMidYMid meet">
<metadata>
Created by potrace 1.15, written by Peter Selinger 2001-2017
</metadata>
<g transform="translate(0.000000,1043.000000) scale(0.100000,-0.100000)"
fill="#000000" stroke="none">
<path d="M2215 9889 c-183 -21 -419 -98 -580 -190 -459 -263 -739 -684 -804
-1209 -8 -57 -11 -1096 -11 -3260 0 -3400 -1 -3269 49 -3465 71 -278 212 -524
417 -729 260 -261 586 -417 950 -456 81 -8 987 -10 3554 -8 l3445 3 100 23
c330 75 591 217 812 440 223 224 360 479 435 807 l23 100 3 3215 c2 2393 0
3243 -8 3324 -43 399 -225 750 -528 1020 -238 211 -556 352 -874 386 -122 13
-6865 12 -6983 -1z m6980 -79 c323 -37 634 -183 869 -410 230 -222 362 -461
439 -792 21 -93 21 -101 24 -1639 l4 -1546 -728 -6 c-400 -4 -1041 -7 -1424
-7 l-697 0 -6 78 c-25 285 -100 532 -231 762 -92 161 -180 276 -320 415 -298
297 -651 475 -1090 552 -155 26 -482 24 -640 -5 -437 -80 -786 -259 -1080
-556 -320 -323 -497 -701 -537 -1143 l-11 -130 -726 -6 c-399 -4 -1045 -7
-1434 -7 l-708 0 4 1573 c3 1555 3 1573 24 1663 74 320 199 551 417 770 187
187 379 303 630 379 223 67 -23 63 3726 64 2236 1 3436 -3 3495 -9z m-3145
-2679 c466 -82 863 -313 1156 -671 162 -199 274 -419 337 -665 43 -169 52
-240 52 -435 0 -193 -8 -261 -52 -435 -155 -624 -685 -1141 -1339 -1304 -190
-47 -262 -55 -489 -55 -184 1 -226 4 -345 27 -596 116 -1093 490 -1345 1012
-283 586 -217 1269 175 1796 308 416 779 683 1320 749 119 14 398 4 530 -19z
m4477 -3483 l-3 -1693 -22 -100 c-72 -312 -208 -561 -423 -772 -213 -208 -448
-334 -757 -405 l-97 -22 -1731 -3 -1731 -3 -7 837 c-3 461 -9 1098 -12 1416
l-7 577 49 0 c146 0 398 45 568 101 630 207 1115 717 1269 1334 29 114 43 202
53 327 l7 88 751 3 c413 1 1054 3 1424 5 l673 2 -4 -1692z m-6757 1643 c0 -53
26 -240 46 -330 142 -638 633 -1168 1280 -1380 139 -46 284 -76 447 -92 l114
-12 7 -421 c3 -231 9 -868 12 -1414 l7 -992 -1739 3 c-1730 3 -1739 3 -1829
24 -332 78 -566 205 -784 426 -199 202 -334 455 -403 755 l-22 97 -3 1667 -4
1668 758 3 c417 1 1063 3 1436 5 393 1 677 -2 677 -7z"/>
<path d="M5554 6126 c-301 -57 -546 -247 -647 -499 -55 -138 -69 -278 -41
-415 102 -497 662 -780 1175 -592 426 155 645 606 486 1000 -97 240 -311 420
-586 492 -99 25 -290 33 -387 14z m378 -95 c212 -55 396 -198 492 -381 47 -89
66 -159 72 -265 21 -323 -213 -621 -563 -717 -111 -30 -325 -31 -435 0 -224
61 -404 205 -498 397 -66 135 -84 269 -54 413 58 283 301 508 612 567 101 19
272 13 374 -14z"/>
</g>
</svg>
