<?xml version="1.0" encoding="utf-8"?>
<!-- Generator: Adobe Illustrator 20.0.0, SVG Export Plug-In . SVG Version: 6.00 Build 0)  -->
<svg version="1.1" id="Layer_1" xmlns="http://www.w3.org/2000/svg" xmlns:xlink="http://www.w3.org/1999/xlink" x="0px" y="0px"
	 viewBox="0 0 737.21 925" style="enable-background:new 0 0 737.21 925;" xml:space="preserve">
<style type="text/css">
	.st0{fill:#000000;}
</style>
<g>
	<path class="st0" d="M453.65,42.06c-4.87-6.87-11.05-13.12-18.35-18.58C412.66,6.58,380.95-1.66,345.99,0.28l-69.47,3.87
		c-33.88,1.88-67.69,13.35-95.2,32.29c-27.73,19.1-45.81,43.83-50.89,69.65L69.12,417.72C47.42,528.01,25,641.98,1.87,759.46
		c-5.38,27.35,1.07,54.38,18.17,76.11l29.37,39.09c2.82,3.82,5.97,7.51,9.37,10.96c22.77,23.13,56.36,36.4,94.6,37.37l77.5,1.95
		c1.52,0.04,3.04,0.06,4.57,0.06c37.35,0,74.26-11.52,104.4-32.67c31.78-22.3,51.91-52.25,56.7-84.31
		c13.21-88.58,26.11-175.14,38.71-259.69l29.76-199.66c10.87-72.94,21.52-144.38,31.95-214.42c2.99-20.11-2.33-39.12-15.4-55
		L453.65,42.06z M457.29,91.43c-10.43,70.04-21.08,141.49-31.95,214.42L398.58,485.4c-13.55,90.91-27.45,184.18-41.71,279.8
		c-4.43,29.74-23.32,57.65-53.17,78.61c-29.88,20.97-66.77,32.03-103.87,31.07l-77.5-1.95c-31.72-0.8-59.94-10.49-80.71-27.51
		l-12.55-16.7l-0.08-0.1C13.94,809.51,8.26,785.73,13,761.65C36.12,644.17,58.55,530.2,80.24,419.91l61.32-311.63
		c4.51-22.9,20.91-45.09,46.19-62.5c25.82-17.77,57.56-28.54,89.4-30.31l69.47-3.87c3.16-0.18,6.29-0.26,9.39-0.26
		c28.52,0,54,7.41,72.5,21.23c6.38,4.76,11.73,10.18,15.93,16.11l10.22,13.61C457.88,71.49,458.79,81.34,457.29,91.43z
		 M485.75,132.58C475.32,202.62,464.67,274.07,453.8,347l-29.76,199.66c-12.6,84.54-25.5,171.11-38.71,259.69
		c-4.32,28.96-22.78,56.2-51.99,76.7c-29.39,20.63-65.68,31.49-102.17,30.56l-77.5-1.95c-35.28-0.89-66.11-12.96-86.8-33.99
		c-3.02-3.07-5.82-6.35-8.35-9.78l-6.05-8.05c19.63,11.56,43.56,18.08,69.73,18.74l77.5,1.95c1.5,0.04,3,0.06,4.5,0.06
		c36.77,0,73.11-11.34,102.77-32.16c31.14-21.85,50.85-51.12,55.52-82.41c14.26-95.62,28.16-188.89,41.71-279.8l26.76-179.54
		c10.87-72.94,21.52-144.38,31.95-214.42c0.95-6.35,1.01-12.61,0.23-18.69l9.45,12.59l0.16,0.21
		C483.76,99.72,488.26,115.7,485.75,132.58z"/>
	<path class="st0" d="M724.74,261.56l-23.84-25.83c-0.78-0.82-1.6-1.63-2.43-2.4c-10.51-9.67-24.87-14.81-40.43-14.46l-29.31,0.65
		c-15.18,0.34-30.08,5.91-41.95,15.68c-12,9.88-19.51,22.96-21.14,36.82L527.25,599.2c-1.89,16.14,2.86,31.66,13.39,43.7
		c0.82,0.94,1.67,1.85,2.53,2.71l22.01,23.91c10.54,11.54,25.36,18.3,41.74,19.05l32.08,1.46c1.03,0.05,2.06,0.07,3.09,0.07
		c15.91,0,31.29-5.63,43.6-16.03c13.24-11.18,21.3-26.32,22.69-42.65l28.65-334.59C738.16,283.72,733.78,271.18,724.74,261.56z
		 M710.43,262.76l6.02,6.52c6.84,7.28,10.14,16.72,9.3,26.59l-28.65,334.59c-1.14,13.31-7.79,25.73-18.71,34.95
		c-10.92,9.22-24.71,13.94-38.86,13.29l-32.08-1.46c-13.35-0.61-25.39-6.07-33.9-15.39l-3.63-3.95c4.31,1.19,8.79,1.91,13.42,2.12
		l32.08,1.46c16.27,0.74,32.17-4.69,44.73-15.29c12.66-10.69,20.37-25.15,21.7-40.73l28.65-334.59
		C710.72,268.15,710.7,265.44,710.43,262.76z M544.43,596.6l38.39-327.18c0.67-5.75,4.31-11.72,9.98-16.38
		c6.41-5.27,14.73-8.4,22.83-8.58l29.31-0.65c0.25-0.01,0.49-0.01,0.74-0.01c7.07,0,13.55,2.26,17.88,6.24
		c3.6,3.31,5.29,7.53,4.89,12.2l-28.65,334.59c-0.69,8.04-4.86,15.67-11.74,21.49c-6.98,5.9-16.16,9.05-25.15,8.63l-32.08-1.46
		c-8.29-0.38-15.57-3.7-20.51-9.34C545.67,610.82,543.58,603.88,544.43,596.6z M538.52,600.52l0.07-0.6
		c0.03,7.42,2.61,14.39,7.47,19.95c5.96,6.82,14.67,10.82,24.52,11.27l32.08,1.46c0.61,0.03,1.21,0.04,1.82,0.04
		c9.81,0,19.65-3.59,27.25-10.01c8.04-6.79,12.92-15.79,13.73-25.33l28.65-334.59c0.55-6.39-1.83-12.38-6.7-16.85
		c-5.63-5.18-13.67-7.94-22.59-7.73l-29.31,0.65c-9.35,0.21-18.94,3.81-26.31,9.87c-0.39,0.32-0.77,0.65-1.15,0.98
		c1.79-2,3.76-3.91,5.93-5.69c9.92-8.17,22.35-12.82,35-13.1l29.31-0.65c0.41-0.01,0.81-0.01,1.22-0.01
		c12.14,0,23.21,4.06,31.28,11.48c0.64,0.59,1.27,1.21,1.82,1.79l10.11,10.95c0.18,0.48,0.35,0.97,0.51,1.46
		c1.49,4.65,2.03,9.54,1.6,14.52l-28.65,334.59c-1.21,14.07-8.2,27.17-19.71,36.88c-11.47,9.68-25.96,14.64-40.82,13.96l-32.08-1.46
		c-7.97-0.36-15.45-2.34-22.24-5.87c-0.07-0.04-0.13-0.07-0.2-0.11l-9.71-10.55l-0.17-0.18c-0.71-0.71-1.41-1.46-2.09-2.23
		C540.79,625.84,537,613.44,538.52,600.52z"/>
	<path class="st0" d="M596.62,453.97c0.23,0.01,0.46,0.01,0.69,0.01c7.47,0,14.78-2.9,20.64-8.21c5.98-5.41,9.72-12.66,10.54-20.4
		c0.82-7.72-1.37-15.03-6.16-20.59c-4.76-5.52-11.53-8.64-19.05-8.81c-7.44-0.17-14.77,2.58-20.72,7.73
		c-5.97,5.16-9.86,12.19-10.95,19.79c-1.12,7.83,0.83,15.32,5.5,21.09C581.86,450.45,588.79,453.78,596.62,453.97z M577.22,424.3
		c0.9-6.25,4.11-12.04,9.05-16.31c4.75-4.11,10.56-6.35,16.4-6.35c0.16,0,0.33,0,0.49,0.01c5.9,0.13,11.18,2.56,14.88,6.84
		c3.76,4.35,5.47,10.14,4.82,16.28c-0.68,6.36-3.77,12.32-8.71,16.8c-4.96,4.5-11.14,6.89-17.4,6.74
		c-6.14-0.15-11.55-2.74-15.24-7.29C577.85,436.48,576.32,430.55,577.22,424.3z"/>
	<path class="st0" d="M391.21,40.4C375.72,28.83,351.95,23.03,326,24.47l-69.47,3.87c-27.22,1.51-54.33,10.7-76.35,25.85
		c-9.21,6.34-31.13,23.57-35.63,46.41L83.24,412.23C60.83,526.15,38.41,640.06,15.99,753.98c-3.82,19.42,1.63,37.27,15.76,51.63
		c15.8,16.05,41.05,25.67,69.26,26.38l77.5,1.95c1.16,0.03,2.32,0.04,3.48,0.04c29.52,0,59.73-9.38,83.39-25.98
		c23.09-16.21,38.19-37.92,41.42-59.58c13.42-89.99,26.83-179.98,40.24-269.97l27.79-186.43c10.8-72.45,21.6-144.91,32.39-217.37
		C409.2,61.34,403.81,49.82,391.21,40.4z M401.61,73.82c-10.79,72.46-21.59,144.91-32.39,217.37l-27.79,186.43
		c-13.41,89.99-26.82,179.98-40.24,269.97c-3,20.13-17.24,40.46-39.07,55.78c-23.61,16.57-54.04,25.65-83.47,24.91l-77.5-1.95
		c-26.76-0.67-50.59-9.67-65.37-24.69c-12.76-12.96-17.68-29.06-14.23-46.55C43.98,641.16,66.39,527.24,88.8,413.32l61.32-311.63
		c4.09-20.8,24.64-36.89,33.28-42.84c20.86-14.36,47.63-23.42,73.45-24.86l69.47-3.87c24.65-1.37,47.06,4.03,61.5,14.82
		C398.77,53.13,403.28,62.57,401.61,73.82z"/>
	<path class="st0" d="M306.63,368.29c-7.72-0.23-15.46,2.69-21.8,8.19c-6.26,5.43-10.52,12.85-12,20.91
		c-1.51,8.28,0.05,16.34,4.41,22.7c4.52,6.59,11.46,10.57,19.55,11.2c0.75,0.06,1.5,0.09,2.24,0.09c7.36,0,14.65-2.81,20.76-8.04
		c6.7-5.74,11.09-13.62,12.37-22.2c1.27-8.55-0.73-16.7-5.63-22.94C321.76,372.12,314.51,368.51,306.63,368.29z M326.56,400.3
		c-1.08,7.23-4.79,13.88-10.45,18.73c-5.58,4.77-12.28,7.12-18.87,6.6c-6.34-0.49-11.78-3.6-15.31-8.76
		c-3.51-5.11-4.75-11.67-3.51-18.47c1.24-6.79,4.84-13.06,10.13-17.65c5.08-4.41,11.19-6.81,17.28-6.81c0.22,0,0.43,0,0.65,0.01
		c6.28,0.18,11.82,2.93,15.6,7.75C326.01,386.7,327.6,393.31,326.56,400.3z"/>
</g>
</svg>
