<?xml version="1.0" encoding="utf-8"?>
<!-- Generator: Adobe Illustrator 23.0.2, SVG Export Plug-In . SVG Version: 6.00 Build 0)  -->
<svg version="1.1" id="Layer_1" xmlns="http://www.w3.org/2000/svg" xmlns:xlink="http://www.w3.org/1999/xlink" x="0px" y="0px"
	 viewBox="0 0 737.2 925" style="enable-background:new 0 0 737.2 925;" xml:space="preserve">
<g>
	<path d="M453.6,42.1c-4.9-6.9-11-13.1-18.4-18.6C412.6,6.6,380.9-1.7,346,0.3l-69.5,3.9c-33.9,1.9-67.7,13.3-95.2,32.3
		c-27.7,19.1-45.8,43.8-50.9,69.7L69.1,417.7C47.4,528,25,642,1.8,759.5c-5.4,27.3,1.1,54.4,18.2,76.1l29.4,39.1
		c2.8,3.8,6,7.5,9.4,11c22.8,23.1,56.4,36.4,94.6,37.4l77.5,2c1.5,0,3,0.1,4.6,0.1c37.3,0,74.3-11.5,104.4-32.7
		c31.8-22.3,51.9-52.2,56.7-84.3c13.2-88.6,26.1-175.1,38.7-259.7L465,348.7c10.9-72.9,21.5-144.4,32-214.4c3-20.1-2.3-39.1-15.4-55
		L453.6,42.1z M457.3,91.4c-10.4,70-21.1,141.5-32,214.4l-26.8,179.5c-13.5,90.9-27.5,184.2-41.7,279.8
		c-4.4,29.7-23.3,57.7-53.2,78.6c-29.9,21-66.8,32-103.9,31.1l-77.5-2c-31.7-0.8-59.9-10.5-80.7-27.5L29,828.7l-0.1-0.1
		c-15.1-19.1-20.7-42.9-16-67c23.1-117.5,45.5-231.5,67.2-341.7l61.3-311.6c4.5-22.9,20.9-45.1,46.2-62.5
		c25.8-17.8,57.6-28.5,89.4-30.3l69.5-3.9c3.2-0.2,6.3-0.3,9.4-0.3c28.5,0,54,7.4,72.5,21.2c6.4,4.8,11.7,10.2,15.9,16.1l10.2,13.6
		C457.9,71.5,458.8,81.3,457.3,91.4z M485.7,132.6c-10.4,70-21.1,141.5-32,214.4L424,546.7c-12.6,84.5-25.5,171.1-38.7,259.7
		c-4.3,29-22.8,56.2-52,76.7c-29.4,20.6-65.7,31.5-102.2,30.6l-77.5-2c-35.3-0.9-66.1-13-86.8-34c-3-3.1-5.8-6.3-8.3-9.8l-6-8
		c19.6,11.6,43.6,18.1,69.7,18.7l77.5,2c1.5,0,3,0.1,4.5,0.1c36.8,0,73.1-11.3,102.8-32.2c31.1-21.8,50.9-51.1,55.5-82.4
		c14.3-95.6,28.2-188.9,41.7-279.8l26.8-179.5c10.9-72.9,21.5-144.4,32-214.4c1-6.3,1-12.6,0.2-18.7l9.5,12.6l0.2,0.2
		C483.7,99.7,488.2,115.7,485.7,132.6z"/>
	<path d="M724.7,261.6l-23.8-25.8c-0.8-0.8-1.6-1.6-2.4-2.4c-10.5-9.7-24.9-14.8-40.4-14.5l-29.3,0.6c-15.2,0.3-30.1,5.9-42,15.7
		c-12,9.9-19.5,23-21.1,36.8l-38.4,327.2c-1.9,16.1,2.9,31.7,13.4,43.7c0.8,0.9,1.7,1.8,2.5,2.7l22,23.9
		c10.5,11.5,25.4,18.3,41.7,19L639,690c1,0,2.1,0.1,3.1,0.1c15.9,0,31.3-5.6,43.6-16c13.2-11.2,21.3-26.3,22.7-42.7L737,296.8
		C738.1,283.7,733.8,271.2,724.7,261.6z M710.4,262.8l6,6.5c6.8,7.3,10.1,16.7,9.3,26.6l-28.7,334.6c-1.1,13.3-7.8,25.7-18.7,35
		c-10.9,9.2-24.7,13.9-38.9,13.3l-32.1-1.5c-13.3-0.6-25.4-6.1-33.9-15.4l-3.6-4c4.3,1.2,8.8,1.9,13.4,2.1l32.1,1.5
		c16.3,0.7,32.2-4.7,44.7-15.3c12.7-10.7,20.4-25.2,21.7-40.7l28.7-334.6C710.7,268.1,710.7,265.4,710.4,262.8z M544.4,596.6
		l38.4-327.2c0.7-5.8,4.3-11.7,10-16.4c6.4-5.3,14.7-8.4,22.8-8.6l29.3-0.6c0.2,0,0.5,0,0.7,0c7.1,0,13.5,2.3,17.9,6.2
		c3.6,3.3,5.3,7.5,4.9,12.2l-28.7,334.6c-0.7,8-4.9,15.7-11.7,21.5c-7,5.9-16.2,9-25.2,8.6l-32.1-1.5c-8.3-0.4-15.6-3.7-20.5-9.3
		C545.6,610.8,543.6,603.9,544.4,596.6z M538.5,600.5l0.1-0.6c0,7.4,2.6,14.4,7.5,20c6,6.8,14.7,10.8,24.5,11.3l32.1,1.5
		c0.6,0,1.2,0,1.8,0c9.8,0,19.7-3.6,27.2-10c8-6.8,12.9-15.8,13.7-25.3l28.7-334.6c0.5-6.4-1.8-12.4-6.7-16.8
		c-5.6-5.2-13.7-7.9-22.6-7.7l-29.3,0.6c-9.3,0.2-18.9,3.8-26.3,9.9c-0.4,0.3-0.8,0.6-1.2,1c1.8-2,3.8-3.9,5.9-5.7
		c9.9-8.2,22.3-12.8,35-13.1l29.3-0.6c0.4,0,0.8,0,1.2,0c12.1,0,23.2,4.1,31.3,11.5c0.6,0.6,1.3,1.2,1.8,1.8l10.1,10.9
		c0.2,0.5,0.3,1,0.5,1.5c1.5,4.6,2,9.5,1.6,14.5L676.2,605c-1.2,14.1-8.2,27.2-19.7,36.9c-11.5,9.7-26,14.6-40.8,14l-32.1-1.5
		c-8-0.4-15.5-2.3-22.2-5.9c-0.1,0-0.1-0.1-0.2-0.1l-9.7-10.5l-0.2-0.2c-0.7-0.7-1.4-1.5-2.1-2.2C540.8,625.8,537,613.4,538.5,600.5
		z"/>
	<path d="M596.6,454c0.2,0,0.5,0,0.7,0c7.5,0,14.8-2.9,20.6-8.2c6-5.4,9.7-12.7,10.5-20.4c0.8-7.7-1.4-15-6.2-20.6
		c-4.8-5.5-11.5-8.6-19-8.8c-7.4-0.2-14.8,2.6-20.7,7.7c-6,5.2-9.9,12.2-11,19.8c-1.1,7.8,0.8,15.3,5.5,21.1
		C581.8,450.4,588.8,453.8,596.6,454z M577.2,424.3c0.9-6.2,4.1-12,9-16.3c4.8-4.1,10.6-6.4,16.4-6.4c0.2,0,0.3,0,0.5,0
		c5.9,0.1,11.2,2.6,14.9,6.8c3.8,4.4,5.5,10.1,4.8,16.3c-0.7,6.4-3.8,12.3-8.7,16.8c-5,4.5-11.1,6.9-17.4,6.7
		c-6.1-0.1-11.5-2.7-15.2-7.3C577.8,436.5,576.3,430.5,577.2,424.3z"/>
	<path d="M391.2,40.4C375.7,28.8,351.9,23,326,24.5l-69.5,3.9c-27.2,1.5-54.3,10.7-76.3,25.9c-9.2,6.3-31.1,23.6-35.6,46.4
		L83.2,412.2C60.8,526.1,38.4,640.1,16,754c-3.8,19.4,1.6,37.3,15.8,51.6c15.8,16,41.1,25.7,69.3,26.4l77.5,2c1.2,0,2.3,0,3.5,0
		c29.5,0,59.7-9.4,83.4-26c23.1-16.2,38.2-37.9,41.4-59.6c13.4-90,26.8-180,40.2-270L374.8,292c10.8-72.4,21.6-144.9,32.4-217.4
		C409.2,61.3,403.8,49.8,391.2,40.4z M401.6,73.8c-10.8,72.5-21.6,144.9-32.4,217.4l-27.8,186.4c-13.4,90-26.8,180-40.2,270
		c-3,20.1-17.2,40.5-39.1,55.8c-23.6,16.6-54,25.7-83.5,24.9l-77.5-2c-26.8-0.7-50.6-9.7-65.4-24.7c-12.8-13-17.7-29.1-14.2-46.5
		C44,641.2,66.4,527.2,88.8,413.3l61.3-311.6c4.1-20.8,24.6-36.9,33.3-42.8C204.2,44.5,231,35.4,256.8,34l69.5-3.9
		c24.6-1.4,47.1,4,61.5,14.8C398.7,53.1,403.3,62.6,401.6,73.8z"/>
	<path d="M306.6,368.3c-7.7-0.2-15.5,2.7-21.8,8.2c-6.3,5.4-10.5,12.9-12,20.9c-1.5,8.3,0,16.3,4.4,22.7
		c4.5,6.6,11.5,10.6,19.5,11.2c0.8,0.1,1.5,0.1,2.2,0.1c7.4,0,14.6-2.8,20.8-8c6.7-5.7,11.1-13.6,12.4-22.2
		c1.3-8.5-0.7-16.7-5.6-22.9C321.7,372.1,314.5,368.5,306.6,368.3z M326.5,400.3c-1.1,7.2-4.8,13.9-10.5,18.7
		c-5.6,4.8-12.3,7.1-18.9,6.6c-6.3-0.5-11.8-3.6-15.3-8.8c-3.5-5.1-4.8-11.7-3.5-18.5c1.2-6.8,4.8-13.1,10.1-17.6
		c5.1-4.4,11.2-6.8,17.3-6.8c0.2,0,0.4,0,0.6,0c6.3,0.2,11.8,2.9,15.6,7.8C326,386.7,327.6,393.3,326.5,400.3z"/>
</g>
</svg>
