<?xml version="1.0" encoding="UTF-8"?>
<svg width="960px" height="960px" viewBox="0 0 960 960" version="1.1" xmlns="http://www.w3.org/2000/svg" xmlns:xlink="http://www.w3.org/1999/xlink">
    <!-- Generator: Sketch 58 (84663) - https://sketch.com -->
    <title>com.aeotec/zw164/icon</title>
    <desc>Created with Sketch.</desc>
    <g id="com.aeotec/zw164/icon" stroke="none" stroke-width="1" fill="none" fill-rule="evenodd" stroke-linejoin="round">
        <rect id="Rectangle" stroke="#000000" stroke-width="15" stroke-linecap="square" x="18.5" y="18.5" width="924" height="924" rx="364.99"/>
        <path d="M884,569.789916 C884,656.556635 848.830838,735.109156 791.969997,791.969997 C735.109156,848.830838 656.556635,884 569.789916,884 L391.210084,884 C304.443365,884 225.890844,848.830838 169.030003,791.969997 C112.169162,735.109156 77,656.556635 77,569.789916 L77,391.210084 C77,304.443365 112.169162,225.890844 169.030003,169.030003 C225.890844,112.169162 304.443365,77 391.210084,77 L569.789916,77 C656.556635,77 735.109156,112.169162 791.969997,169.030003 C848.830838,225.890844 884,304.443365 884,391.210084 L884,569.789916 Z" id="Rectangle" stroke="#000000" stroke-width="7.5"/>
        <path d="M817.284462,453.612823 C817.556373,464.62342 817.525437,498.477426 817.201909,509.639544 C816.196413,544.330429 812.740504,576.731348 805.475769,607.883332 C795.924409,648.840619 780.515362,683.605278 757.943234,710.448442 C708.3382,769.439604 637.824545,795.06341 525.722386,799.966011 C510.112294,800.648692 448.82941,800.981779 434.994177,800.388281 C322.454773,795.560612 251.763484,769.953278 202.055442,710.839617 C177.213308,681.296922 161.090703,642.274101 151.889789,596.078277 C145.260458,562.793825 142.795419,530.208251 142.496553,493.372593 C142.457636,488.576006 142.458475,472.121325 142.498729,467.321151 C142.807266,430.528855 145.290195,397.921023 151.931943,364.667857 C161.140612,318.562921 177.252326,279.614165 202.055442,250.117871 C252.489388,190.140953 324.431629,164.65807 440.093424,160.365319 C453.847337,159.854847 505.342851,159.479366 516.675213,159.859987 C634.329964,163.811666 707.054655,189.20912 757.943234,249.726696 C780.910554,277.03983 796.455447,312.538054 805.960788,354.399432 C813.128084,385.964095 816.418865,418.561805 817.284462,453.612823 Z" id="Path-2" stroke="#000000" stroke-width="15" stroke-linecap="square"/>
    </g>
</svg>