<?xml version="1.0" encoding="utf-8"?>
<!-- Generator: Adobe Illustrator 16.0.0, SVG Export Plug-In . SVG Version: 6.00 Build 0)  -->
<!DOCTYPE svg PUBLIC "-//W3C//DTD SVG 1.1//EN" "http://www.w3.org/Graphics/SVG/1.1/DTD/svg11.dtd">
<svg version="1.1" id="Layer_1" xmlns="http://www.w3.org/2000/svg" xmlns:xlink="http://www.w3.org/1999/xlink" x="0px" y="0px"
	 width="1000px" height="1000px" viewBox="0 0 1000 1000" enable-background="new 0 0 1000 1000" xml:space="preserve">
<path d="M947.434,137.416c-11.237-9.714-23.521-16.189-36.473-19.236l0.189-1.238L710.694,86.468
	c-35.806-7.142-65.803-5.142-99.895,0L426.34,116.941l0.477,2.667l-0.572-2.667c-12.76,2.762-24.664,6.285-36.758,10.951
	c-5.809,2.19-11.332,4.476-16.57,6.856c-25.426,11.333-53.138,27.236-90.657,48.758l-11.332,6.476l1.333,2.381l-1.429-2.286
	c-11.237,7.237-20.76,17.332-28.474,30.378c-23.712,7.143-45.614,21.427-65.137,42.567c-20.188,21.903-38.282,51.71-53.804,88.563
	l-0.572-0.096l1.238,59.899c-21.427-3.047-42.948-6.095-64.375-9.237c-10.475-1.523-20.95-3.047-31.425-4.476h-0.096
	c-12.665-0.571-24.379,10.38-27.331,25.521c-3.143,15.998,4.571,30.664,17.713,33.426c22.665,3.809,46.091,7.809,69.327,11.713
	l17.331,2.952c0.096,0.952,0.096,1.904,0.19,2.856c0.762,8.381,2.952,18.57,9.143,19.617l11.236,1.619l1.619,74.85v0.19l0.096,0.191
	c7.237,23.712,18.379,42.281,34.092,56.565c14.094,12.856,31.807,22.665,55.613,30.854v16.475c0,30.664,7.429,61.137,21.998,90.563
	c15.428,31.045,38.473,59.994,68.66,86.087c7.333,7.333,15.713,13.428,25.235,18.38c2.381,1.237,4.762,2.381,7.333,3.428
	c0.096,0,0.19,0.096,0.285,0.096l0,0c1.619,0.666,3.238,1.237,4.952,1.809c39.044,12.285,122.084,26.379,233.883,39.521
	c7.999,2.476,16.188,3.714,24.569,3.714c7.142,0,14.379-0.857,21.712-2.666l52.091-12.856c25.807-6.38,51.519-12.665,76.944-18.95
	l125.036-30.759c31.807-7.81,61.613-33.712,84.087-73.041c22.284-38.948,34.663-86.468,34.759-133.701l1.333-367.395
	C1000.191,218.837,980.573,165.984,947.434,137.416z M179.031,264.927c18.379-19.903,38.948-33.711,61.137-40.949
	c-3.809,6.952-7.142,14.57-9.999,23.046c-8.761,25.902-13.236,59.613-13.142,99.99v20.569l-91.039-15.427
	C141.32,315.779,159.223,286.449,179.031,264.927z M217.027,447.767l-89.896-12.57l-0.477-23.331l0,0l-1.238-57.138l91.61,15.522
	V447.767z M125.416,437.863l0.477-0.095l91.134,12.761v5.143l-101.323-15.047L125.416,437.863z M107.99,474.051
	c-0.095-1.048-0.19-2.19-0.285-3.238v-0.571c-0.19-3.237-0.19-6.476,0-9.522c0-0.19,0-0.381,0-0.571c0-0.096,0-0.19,0-0.286
	c0.285-5.904,1.143-10.951,1.999-14.284c0.382-1.333,0.763-2.381,1.144-3.048l106.085,15.809v47.995l-102.181-15.142
	C111.513,490.716,108.942,484.24,107.99,474.051z M217.027,509.094v72.945l-87.134-14.569l-1.524-71.422L217.027,509.094z
	 M163.223,625.369c-15.237-13.998-26.188-31.996-33.235-55.232l0,0l87.039,14.57v70.564
	C194.076,647.463,176.84,637.844,163.223,625.369z M243.881,762.785c-14.188-28.568-21.426-58.28-21.426-88.087v-16.38l0.285-1.047
	c-0.095,0-0.19-0.096-0.285-0.096V347.014c-0.096-79.325,17.046-130.559,51.042-152.366l11.237-6.476
	c15.808-9.047,29.807-17.046,42.662-24.188c-7.142,6.381-13.617,13.332-19.427,20.951c-20.283,26.378-33.9,61.708-41.614,107.894
	c-3.238,19.332-4.571,33.426-4.571,48.662v312.638c0,68.945,5.714,117.036,18.094,151.224c2.762,7.714,5.904,14.761,9.428,21.236
	C270.26,806.495,255.024,785.164,243.881,762.785z M267.213,347.11v169.508 M347.11,869.822c-1.619-0.476-3.238-1.047-4.762-1.714
	c-2.381-1.048-4.57-2.095-6.856-3.238c-8.951-4.856-16.855-11.236-23.712-17.236l0,0c-11.332-11.332-20.093-25.902-26.759-44.186
	c-12.095-33.616-17.809-81.04-17.809-149.415l0.096-312.446v-0.286c0-14.855,1.333-28.759,4.476-47.709
	c7.523-45.234,20.855-79.803,40.567-105.515c15.332-19.902,34.568-35.234,59.804-47.138c6.856-3.143,13.522-5.904,20.188-8.476
	c0.952-0.381,1.81-0.667,2.762-1.048l0,0c10.57-3.904,21.142-6.951,32.283-9.332L611.751,91.61c33.521-5.047,62.946-7.047,97.99,0
	l168.556,25.617L625.749,155.51c-34.758,5.237-67.517,30.188-92.372,70.278C508.713,265.689,495,315.398,495,365.87l-0.381,391.392
	c-0.096,61.327,20.76,114.275,55.613,141.605c3.904,3.048,7.81,5.714,11.904,7.999C424.817,890.201,368.631,876.584,347.11,869.822z
	 M993.239,646.224c-0.381,95.61-51.805,186.077-114.751,201.505l-125.036,30.759c-25.426,6.285-51.138,12.57-76.944,18.951
	l-52.186,12.855c-15.047,3.714-29.807,3.333-43.615-1.048l0,0h-0.095c-9.523-2.952-18.57-7.809-27.046-14.475
	c-33.521-26.283-53.519-77.707-53.519-137.415l0.381-391.392c0-49.52,13.428-98.182,37.616-137.226
	c23.997-38.663,55.423-62.756,88.563-67.803l255.023-38.568c3.81-0.571,7.523-0.856,11.237-0.856
	c18.283,0,35.711,6.856,51.043,20.093c31.901,27.521,50.852,78.85,50.661,137.226L993.239,646.224z"/>
<circle fill="#0074CC" stroke="#000000" stroke-width="6" stroke-miterlimit="10" cx="380.851" cy="536.831" r="85"/>
</svg>
